<svg width="30" height="30" viewBox="0 0 30 30" fill="none" xmlns="http://www.w3.org/2000/svg">
<g id="Frame 15">
<path id="Vector" d="M24.2222 26.201H4.77778V10.801H24.2222M24.2222 3.80098H22.8333V1.00098H20.0556V3.80098H8.94444V1.00098H6.16667V3.80098H4.77778C3.23611 3.80098 2 5.06098 2 6.60098V26.201C2 26.9436 2.29266 27.6558 2.81359 28.1809C3.33453 28.706 4.04107 29.001 4.77778 29.001H24.2222C24.9589 29.001 25.6655 28.706 26.1864 28.1809C26.7073 27.6558 27 26.9436 27 26.201V6.60098C27 5.85837 26.7073 5.14618 26.1864 4.62108C25.6655 4.09598 24.9589 3.80098 24.2222 3.80098ZM20.7917 15.085L19.3194 13.601L12.5417 20.433L9.59722 17.465L8.125 18.949L12.5417 23.401L20.7917 15.085Z" fill="#555555"/>
</g>
</svg>
