<svg width="30" height="30" viewBox="0 0 30 30" fill="none" xmlns="http://www.w3.org/2000/svg">
<g id="Frame 14">
<path id="Vector" d="M14.5 24.501C17.1522 24.501 19.6957 23.4474 21.5711 21.572C23.4464 19.6967 24.5 17.1531 24.5 14.501C24.5 11.8488 23.4464 9.30527 21.5711 7.42991C19.6957 5.55455 17.1522 4.50098 14.5 4.50098C11.8478 4.50098 9.3043 5.55455 7.42893 7.42991C5.55357 9.30527 4.5 11.8488 4.5 14.501C4.5 17.1531 5.55357 19.6967 7.42893 21.572C9.3043 23.4474 11.8478 24.501 14.5 24.501ZM14.5 2.00098C16.1415 2.00098 17.767 2.3243 19.2835 2.95248C20.8001 3.58067 22.1781 4.50141 23.3388 5.66214C24.4996 6.82287 25.4203 8.20086 26.0485 9.71743C26.6767 11.234 27 12.8595 27 14.501C27 17.8162 25.683 20.9956 23.3388 23.3398C20.9946 25.684 17.8152 27.001 14.5 27.001C7.5875 27.001 2 21.376 2 14.501C2 11.1858 3.31696 8.00635 5.66117 5.66214C8.00537 3.31794 11.1848 2.00098 14.5 2.00098ZM15.125 8.25098V14.8135L20.75 18.151L19.8125 19.6885L13.25 15.751V8.25098H15.125Z" fill="#555555"/>
</g>
</svg>
